<?xml version="1.0" standalone="no"?>
<!DOCTYPE svg PUBLIC "-//W3C//DTD SVG 20010904//EN"
 "http://www.w3.org/TR/2001/REC-SVG-20010904/DTD/svg10.dtd">
<svg version="1.0" xmlns="http://www.w3.org/2000/svg"
 width="272.000000pt" height="133.000000pt" viewBox="0 0 272.000000 133.000000"
 preserveAspectRatio="xMidYMid meet">
<metadata>
Created by potrace 1.16, written by Peter Selinger 2001-2019
</metadata>
<g transform="translate(0.000000,133.000000) scale(0.100000,-0.100000)"
fill="#ffffff" stroke="none">
<path d="M576 1016 c-18 -29 -22 -71 -5 -60 7 4 9 -2 7 -17 -1 -12 -9 -24 -16
-27 -7 -2 -10 2 -6 12 6 17 -11 23 -20 7 -3 -5 -18 -11 -34 -13 -27 -4 -28 -3
-27 45 0 36 -5 52 -17 61 -27 17 -38 -3 -40 -70 -1 -32 -4 -52 -5 -44 -3 11
-17 15 -53 14 -51 -1 -63 10 -34 30 23 17 9 63 -22 69 -32 6 -34 2 -34 -55 0
-42 -3 -49 -18 -46 -29 5 -69 -28 -83 -67 -13 -35 -15 -36 -52 -29 -44 7 -57
-3 -49 -42 5 -29 46 -43 73 -25 26 16 26 16 25 -40 -1 -51 -1 -51 -39 -45 -42
7 -77 -7 -77 -31 0 -10 6 -14 19 -10 14 3 18 1 14 -9 -4 -10 4 -14 27 -14 18
0 29 4 25 10 -3 6 3 10 14 10 18 0 21 -6 21 -49 0 -50 0 -50 -48 -53 -40 -3
-47 -6 -50 -26 -5 -37 16 -55 58 -48 31 5 36 3 37 -15 3 -38 31 -68 65 -71 22
-2 32 -8 30 -17 -2 -8 0 -32 3 -53 6 -31 11 -38 30 -38 32 0 46 21 36 56 -4
16 -12 28 -17 26 -5 -2 -10 3 -12 11 -2 11 9 13 50 9 63 -5 87 12 68 47 -11
22 -30 28 -30 11 0 -13 -101 -13 -134 0 -26 10 -26 10 -26 212 1 153 4 207 14
221 15 19 58 22 105 6 22 -8 40 -8 62 0 17 6 36 7 43 3 6 -4 54 -7 106 -7 95
0 95 0 92 -76 -4 -85 9 -119 45 -119 25 0 36 27 31 76 -3 28 -2 29 35 26 31
-3 38 0 46 20 12 31 -5 51 -38 45 -33 -6 -51 1 -51 22 0 9 -14 32 -30 51 -23
28 -31 33 -41 23 -23 -23 -28 -14 -22 35 4 39 2 50 -15 65 -19 17 -20 17 -36
-7z"/>
<path d="M1748 1018 c-8 -16 -13 -72 -13 -175 0 -171 6 -189 53 -162 25 14 27
20 28 81 2 94 5 100 56 96 43 -3 43 -3 39 -88 -4 -99 8 -122 48 -94 20 15 22
23 20 104 -2 120 -19 150 -86 150 -37 0 -53 -5 -75 -27 -28 -27 -28 -27 -28
-2 0 14 4 29 9 35 4 5 11 23 14 41 5 26 2 34 -18 47 -31 20 -32 20 -47 -6z"/>
<path d="M2028 1013 c-9 -10 -13 -27 -11 -38 3 -11 4 -27 4 -35 -1 -8 -3 -48
-6 -87 -5 -77 11 -104 18 -30 3 40 4 40 5 -10 1 -29 -2 -53 -7 -53 -14 0 -18
-32 -8 -62 6 -20 16 -28 32 -28 13 0 27 5 31 11 3 6 8 56 9 111 4 108 -6 142
-37 132 -13 -4 -18 0 -18 14 0 15 5 18 24 15 19 -4 24 0 28 22 9 46 -34 72
-64 38z"/>
<path d="M999 1003 c-24 -6 -29 -33 -29 -180 0 -124 1 -133 22 -147 28 -20 48
-5 48 39 0 29 3 33 48 44 26 7 59 13 75 14 29 2 57 41 57 79 0 11 4 27 9 36
17 32 0 72 -40 98 -32 20 -51 24 -106 23 -38 -1 -75 -3 -84 -6z m168 -89 c7
-10 13 -26 13 -35 0 -23 -54 -49 -102 -49 -38 0 -38 0 -38 49 0 30 5 52 13 55
25 11 101 -2 114 -20z m-72 -134 c4 -6 -7 -10 -24 -10 -17 0 -31 5 -31 10 0 6
11 10 24 10 14 0 28 -4 31 -10z"/>
<path d="M2462 990 c-31 -19 -33 -24 -30 -68 3 -40 6 -47 26 -50 29 -4 23 -28
-7 -25 -20 3 -21 -2 -21 -67 0 -67 1 -70 33 -94 38 -29 59 -34 50 -10 -5 15
13 14 64 -1 38 -12 103 44 103 88 0 22 -29 74 -45 81 -21 8 -19 23 5 29 21 5
26 38 14 85 -14 49 -132 69 -192 32z m140 -64 c12 -17 -30 -46 -67 -46 -29 0
-33 4 -37 30 -3 17 -2 32 1 35 8 9 95 -7 103 -19z m5 -134 c19 -24 -22 -62
-68 -62 -42 0 -61 17 -55 51 3 13 5 27 5 30 2 13 106 -4 118 -19z"/>
<path d="M1304 918 c-28 -13 -44 -49 -44 -98 0 -22 -4 -40 -10 -40 -5 0 -10
-7 -10 -15 0 -8 5 -15 11 -15 5 0 7 -5 4 -11 -10 -16 33 -57 69 -65 37 -8 78
-8 107 1 25 8 41 45 27 63 -14 17 -57 15 -64 -3 -9 -23 -38 -18 -66 13 -22 23
-25 33 -19 67 5 35 10 40 40 46 20 4 42 3 52 -4 13 -8 24 -8 43 1 31 14 32 26
6 52 -15 15 -33 20 -72 19 -29 0 -63 -5 -74 -11z"/>
<path d="M1516 901 c-15 -15 -33 -49 -41 -75 -13 -44 -13 -48 5 -66 11 -11 20
-28 20 -39 0 -29 48 -55 101 -54 62 1 84 9 97 37 18 39 2 49 -67 41 -43 -5
-66 -3 -76 5 -20 17 -19 77 1 98 19 18 80 18 103 -1 10 -9 18 -6 32 12 19 24
19 24 -2 48 -19 19 -32 23 -84 23 -54 0 -64 -3 -89 -29z"/>
<path d="M2144 889 c3 -21 2 -40 -4 -44 -11 -7 -11 -76 2 -91 5 -7 3 -33 -4
-63 -10 -44 -9 -56 5 -87 13 -27 22 -35 40 -32 19 3 22 9 23 53 3 81 1 78 34
55 21 -15 37 -19 52 -14 13 4 31 8 41 9 38 4 60 40 63 108 7 122 -20 146 -166
145 -92 -1 -92 -1 -86 -39z m183 -43 c41 -48 16 -106 -49 -114 -32 -4 -68 31
-68 67 0 59 79 91 117 47z"/>
<path d="M277 811 c-8 -10 -11 -60 -10 -158 2 -156 6 -183 30 -183 8 0 17 -9
20 -20 7 -26 33 -26 33 0 0 17 4 19 26 14 18 -5 29 -1 39 12 20 26 19 31 -10
50 -21 13 -28 14 -40 4 -10 -8 -19 -9 -25 -4 -7 7 -15 172 -11 219 1 6 29 10
68 10 60 -1 69 -4 79 -23 16 -33 67 -81 84 -82 18 0 40 19 40 35 0 6 -27 39
-60 73 -64 67 -60 65 -188 66 -43 1 -67 -4 -75 -13z"/>
<path d="M582 618 c-17 -17 -15 -58 5 -80 24 -27 3 -38 -61 -31 -72 7 -82 -7
-56 -76 26 -71 76 -109 127 -96 26 6 63 -10 63 -27 0 -6 11 -21 25 -34 14 -13
25 -26 25 -29 0 -9 51 -55 61 -55 16 0 59 24 59 33 0 5 14 22 30 37 37 35 38
63 4 93 -15 12 -33 29 -42 37 -8 8 -26 23 -40 32 -21 14 -26 25 -26 65 -1 64
-42 120 -94 129 -21 3 -44 8 -52 10 -9 2 -21 -1 -28 -8z m88 -74 c8 -8 14 -36
15 -62 1 -40 -2 -51 -23 -66 -32 -24 -96 -25 -122 -1 -25 23 -25 35 0 35 11 0
20 -5 20 -11 0 -17 43 0 68 28 19 21 22 33 17 60 -6 35 4 43 25 17z m99 -190
c32 -27 40 -61 20 -81 -9 -9 -17 -6 -30 12 -11 13 -19 28 -19 33 0 5 -11 17
-25 26 -14 9 -23 21 -20 26 11 18 43 11 74 -16z"/>
<path d="M1015 539 c-41 -24 -45 -38 -45 -175 0 -118 2 -134 21 -158 21 -26
53 -34 64 -16 3 5 -2 10 -11 10 -12 0 -15 3 -8 10 6 6 33 6 73 0 102 -14 142
14 132 92 -5 32 -12 46 -28 53 -28 12 -29 19 -3 45 26 26 28 98 3 107 -10 4
-23 14 -29 22 -15 19 -140 27 -169 10z m110 -19 c14 -6 4 -8 -35 -8 -45 0 -50
2 -25 8 39 10 37 10 60 0z m43 -59 c8 -4 12 -19 10 -32 -3 -22 -7 -24 -56 -21
-40 2 -54 -1 -58 -13 -12 -30 -24 -14 -24 30 0 45 0 45 58 45 31 0 63 -4 70
-9z m9 -144 c17 -18 17 -19 -2 -33 -10 -8 -36 -14 -56 -14 -21 0 -44 -3 -52
-6 -21 -7 -29 43 -10 62 21 21 98 16 120 -9z"/>
<path d="M1569 548 c0 -2 -2 -76 -4 -165 -3 -136 -1 -165 11 -178 9 -8 19 -15
24 -15 18 0 30 39 29 92 -1 41 -3 48 -9 28 -8 -24 -8 -23 -9 8 -1 18 3 31 8
28 14 -9 18 95 4 113 -9 11 -12 12 -13 3 0 -7 -4 -11 -10 -7 -13 8 -1 35 15
29 20 -8 27 27 9 47 -14 15 -52 27 -55 17z"/>
<path d="M1686 542 c-3 -5 -6 -82 -7 -170 -1 -116 2 -166 11 -177 15 -18 36
-20 45 -4 9 14 10 333 1 347 -8 14 -42 16 -50 4z"/>
<path d="M1976 534 c-10 -26 -7 -73 6 -94 7 -10 9 -22 6 -25 -10 -11 -48 19
-48 37 0 10 -7 18 -16 18 -22 0 -114 -33 -114 -41 0 -3 -9 -16 -20 -29 -22
-25 -26 -55 -9 -66 6 -3 9 -19 5 -34 -3 -18 0 -33 9 -40 8 -7 15 -18 15 -26 0
-16 37 -37 50 -29 6 3 10 0 10 -8 0 -15 52 -19 66 -4 11 10 48 9 60 -3 7 -7
19 0 39 20 23 24 26 32 15 45 -7 8 -10 21 -7 29 3 7 1 18 -5 24 -8 8 -8 15 -1
24 6 7 9 33 6 58 -2 25 -4 65 -3 89 0 24 -5 50 -11 57 -15 19 -45 18 -53 -2z
m-21 -161 c15 -17 23 -34 19 -43 -4 -8 -7 -23 -8 -32 -3 -23 -7 -27 -45 -38
-27 -8 -35 -5 -56 18 -31 33 -32 68 -3 99 29 31 62 29 93 -4z m35 -149 c0 -8
-4 -12 -10 -9 -5 3 -10 13 -10 21 0 8 5 12 10 9 6 -3 10 -13 10 -21z m-77 -21
c-7 -2 -19 -2 -25 0 -7 3 -2 5 12 5 14 0 19 -2 13 -5z"/>
<path d="M2357 463 c-8 -8 -9 -267 -1 -275 3 -3 17 -3 32 1 26 7 27 10 32 94
6 92 11 103 50 109 20 2 25 9 25 33 0 29 -1 30 -52 30 -28 0 -55 3 -59 8 -9 9
-19 9 -27 0z"/>
<path d="M1281 441 c-11 -19 -8 -119 4 -184 6 -27 15 -41 30 -47 13 -5 26 -14
30 -19 11 -19 39 -12 78 20 38 31 62 34 37 4 -10 -12 -9 -16 4 -21 9 -3 23 -1
31 6 23 19 17 253 -5 258 -35 6 -51 -21 -55 -96 -2 -40 -7 -77 -10 -82 -7 -12
-65 -13 -82 -2 -9 5 -11 30 -8 81 5 74 -3 101 -31 101 -7 0 -18 -8 -23 -19z
m189 -91 c0 -22 -5 -40 -10 -40 -6 0 -9 16 -6 38 5 45 5 42 11 42 3 0 5 -18 5
-40z"/>
<path d="M2117 440 c-15 -12 -29 -36 -33 -56 -3 -19 -10 -37 -15 -40 -5 -3 -5
-12 0 -22 5 -9 17 -38 26 -64 12 -34 22 -48 35 -48 10 0 20 -5 22 -11 7 -20
71 -18 104 2 25 15 54 55 54 74 0 7 -64 -7 -74 -16 -18 -16 -50 -9 -79 17 -33
29 -30 56 5 46 13 -3 28 -12 33 -19 8 -11 17 -12 38 -4 20 8 34 8 49 0 29 -16
40 5 33 61 -3 29 -14 54 -32 72 -23 24 -34 28 -84 28 -42 0 -63 -5 -82 -20z
m138 -65 c0 -17 -8 -20 -57 -22 -32 -1 -58 0 -58 3 0 2 6 13 13 25 10 16 21
19 57 17 37 -2 45 -6 45 -23z m-32 -172 c-7 -2 -19 -2 -25 0 -7 3 -2 5 12 5
14 0 19 -2 13 -5z"/>
<path  d="M1099 189 c16 -6 28 -6 35 1 7 7 -1 10 -24 9 -33 0 -34 -1 -11 -10z"/>
</g>
</svg>
